<mxfile host="app.diagrams.net" modified="2023-08-09T07:24:08.798Z" agent="Mozilla/5.0 (Windows NT 10.0; Win64; x64) AppleWebKit/537.36 (KHTML, like Gecko) Chrome/115.0.0.0 Safari/537.36" etag="J1iPgLbPlXX9IraDoynK" version="21.6.6" type="github">
  <diagram name="페이지-1" id="PGyz6WDO0yjTCRolJygI">
    <mxGraphModel dx="2074" dy="1142" grid="1" gridSize="10" guides="1" tooltips="1" connect="1" arrows="1" fold="1" page="1" pageScale="1" pageWidth="827" pageHeight="1169" math="0" shadow="0">
      <root>
        <mxCell id="0" />
        <mxCell id="1" parent="0" />
        <mxCell id="a6851HNYbTkYE2Kyq5rs-1" value="가양역 지하철역에서&amp;nbsp;&lt;br&gt;나온다&amp;nbsp;" style="ellipse;whiteSpace=wrap;html=1;" vertex="1" parent="1">
          <mxGeometry x="50" y="680" width="150" height="50" as="geometry" />
        </mxCell>
        <mxCell id="a6851HNYbTkYE2Kyq5rs-2" value="회사 방향으로 걷는다" style="ellipse;whiteSpace=wrap;html=1;" vertex="1" parent="1">
          <mxGeometry x="220" y="680" width="150" height="50" as="geometry" />
        </mxCell>
        <mxCell id="a6851HNYbTkYE2Kyq5rs-3" value="회사 맞은편 신호등에서&lt;br&gt;멈춰선다&amp;nbsp;" style="ellipse;whiteSpace=wrap;html=1;" vertex="1" parent="1">
          <mxGeometry x="390" y="680" width="150" height="50" as="geometry" />
        </mxCell>
        <mxCell id="a6851HNYbTkYE2Kyq5rs-4" value="어느 가게로 갈지&amp;nbsp;&lt;br&gt;생각한다" style="ellipse;whiteSpace=wrap;html=1;" vertex="1" parent="1">
          <mxGeometry x="560" y="680" width="150" height="50" as="geometry" />
        </mxCell>
        <mxCell id="a6851HNYbTkYE2Kyq5rs-5" value="국민우유에서 커피를&amp;nbsp;&lt;br&gt;사기로 한다" style="ellipse;whiteSpace=wrap;html=1;" vertex="1" parent="1">
          <mxGeometry x="680" y="550" width="150" height="50" as="geometry" />
        </mxCell>
        <mxCell id="a6851HNYbTkYE2Kyq5rs-6" value="메가커피에서 커피를&amp;nbsp;&lt;br&gt;사기로 한다" style="ellipse;whiteSpace=wrap;html=1;" vertex="1" parent="1">
          <mxGeometry x="680" y="860" width="150" height="50" as="geometry" />
        </mxCell>
        <mxCell id="a6851HNYbTkYE2Kyq5rs-23" value="" style="edgeStyle=orthogonalEdgeStyle;rounded=0;orthogonalLoop=1;jettySize=auto;html=1;" edge="1" parent="1" source="a6851HNYbTkYE2Kyq5rs-7" target="a6851HNYbTkYE2Kyq5rs-13">
          <mxGeometry relative="1" as="geometry" />
        </mxCell>
        <mxCell id="a6851HNYbTkYE2Kyq5rs-7" value="국민우유 가게로&lt;br&gt;들어간다" style="ellipse;whiteSpace=wrap;html=1;" vertex="1" parent="1">
          <mxGeometry x="1140" y="600" width="150" height="50" as="geometry" />
        </mxCell>
        <mxCell id="a6851HNYbTkYE2Kyq5rs-8" value="밖에 있는 키오스크로 주문한다" style="ellipse;whiteSpace=wrap;html=1;" vertex="1" parent="1">
          <mxGeometry x="1070" y="470" width="200" height="50" as="geometry" />
        </mxCell>
        <mxCell id="a6851HNYbTkYE2Kyq5rs-9" value="키오스크로 주문한다" style="ellipse;whiteSpace=wrap;html=1;" vertex="1" parent="1">
          <mxGeometry x="1410" y="690" width="130" height="45" as="geometry" />
        </mxCell>
        <mxCell id="a6851HNYbTkYE2Kyq5rs-10" value="직원에게 주문한다" style="ellipse;whiteSpace=wrap;html=1;" vertex="1" parent="1">
          <mxGeometry x="800" y="1020" width="200" height="50" as="geometry" />
        </mxCell>
        <mxCell id="a6851HNYbTkYE2Kyq5rs-11" value="국민우유 가게쪽으로 &lt;br&gt;걷는다" style="ellipse;whiteSpace=wrap;html=1;" vertex="1" parent="1">
          <mxGeometry x="850" y="550" width="150" height="50" as="geometry" />
        </mxCell>
        <mxCell id="a6851HNYbTkYE2Kyq5rs-12" value="문앞에서 멈춘다.. ?" style="ellipse;whiteSpace=wrap;html=1;" vertex="1" parent="1">
          <mxGeometry x="930" y="470" width="120" height="50" as="geometry" />
        </mxCell>
        <mxCell id="a6851HNYbTkYE2Kyq5rs-13" value="커피를 주문한다" style="ellipse;whiteSpace=wrap;html=1;" vertex="1" parent="1">
          <mxGeometry x="1340" y="600" width="110" height="50" as="geometry" />
        </mxCell>
        <mxCell id="a6851HNYbTkYE2Kyq5rs-14" value="어플로 커피를 주문한다" style="ellipse;whiteSpace=wrap;html=1;" vertex="1" parent="1">
          <mxGeometry x="600" y="940" width="150" height="50" as="geometry" />
        </mxCell>
        <mxCell id="a6851HNYbTkYE2Kyq5rs-15" value="메가커피에서 받는다" style="ellipse;whiteSpace=wrap;html=1;" vertex="1" parent="1">
          <mxGeometry x="690" y="1070" width="150" height="50" as="geometry" />
        </mxCell>
        <mxCell id="a6851HNYbTkYE2Kyq5rs-16" value="어플로 커피를 주문한다" style="ellipse;whiteSpace=wrap;html=1;" vertex="1" parent="1">
          <mxGeometry x="380" y="1000" width="150" height="50" as="geometry" />
        </mxCell>
        <mxCell id="a6851HNYbTkYE2Kyq5rs-17" value="메가커피 가게쪽으로 &lt;br&gt;걷는다" style="ellipse;whiteSpace=wrap;html=1;" vertex="1" parent="1">
          <mxGeometry x="770" y="940" width="150" height="50" as="geometry" />
        </mxCell>
        <mxCell id="a6851HNYbTkYE2Kyq5rs-18" value="" style="endArrow=classic;html=1;rounded=0;entryX=0.5;entryY=1;entryDx=0;entryDy=0;exitX=0.5;exitY=0;exitDx=0;exitDy=0;" edge="1" parent="1" source="a6851HNYbTkYE2Kyq5rs-11" target="a6851HNYbTkYE2Kyq5rs-12">
          <mxGeometry width="50" height="50" relative="1" as="geometry">
            <mxPoint x="993" y="558" as="sourcePoint" />
            <mxPoint x="1029" y="546" as="targetPoint" />
          </mxGeometry>
        </mxCell>
        <mxCell id="a6851HNYbTkYE2Kyq5rs-20" value="직원에게 주문한다" style="ellipse;whiteSpace=wrap;html=1;" vertex="1" parent="1">
          <mxGeometry x="1240" y="690" width="140" height="40" as="geometry" />
        </mxCell>
        <mxCell id="a6851HNYbTkYE2Kyq5rs-21" value="쿠폰으로 주문한다&amp;nbsp;" style="ellipse;whiteSpace=wrap;html=1;" vertex="1" parent="1">
          <mxGeometry x="1240" y="790" width="120" height="50" as="geometry" />
        </mxCell>
        <mxCell id="a6851HNYbTkYE2Kyq5rs-22" value="&amp;lt;&amp;lt;extend&amp;gt;&amp;gt;" style="edgeStyle=none;html=1;startArrow=open;endArrow=none;startSize=12;verticalAlign=bottom;dashed=1;labelBackgroundColor=none;rounded=0;entryX=0.592;entryY=0.02;entryDx=0;entryDy=0;entryPerimeter=0;" edge="1" parent="1" target="a6851HNYbTkYE2Kyq5rs-21">
          <mxGeometry width="160" relative="1" as="geometry">
            <mxPoint x="1314" y="730" as="sourcePoint" />
            <mxPoint x="1474" y="730" as="targetPoint" />
          </mxGeometry>
        </mxCell>
        <mxCell id="a6851HNYbTkYE2Kyq5rs-25" value="&amp;lt;&amp;lt;extend&amp;gt;&amp;gt;" style="edgeStyle=none;html=1;startArrow=open;endArrow=none;startSize=12;verticalAlign=bottom;dashed=1;labelBackgroundColor=none;rounded=0;exitX=0.253;exitY=0.94;exitDx=0;exitDy=0;exitPerimeter=0;" edge="1" parent="1" source="a6851HNYbTkYE2Kyq5rs-13">
          <mxGeometry x="0.5142" y="1" width="160" relative="1" as="geometry">
            <mxPoint x="1370" y="640" as="sourcePoint" />
            <mxPoint x="1330.3462164974067" y="689.9526068176992" as="targetPoint" />
            <mxPoint as="offset" />
          </mxGeometry>
        </mxCell>
        <mxCell id="a6851HNYbTkYE2Kyq5rs-26" value="&amp;lt;&amp;lt;extend&amp;gt;&amp;gt;" style="edgeStyle=none;html=1;startArrow=open;endArrow=none;startSize=12;verticalAlign=bottom;dashed=1;labelBackgroundColor=none;rounded=0;exitX=0.762;exitY=0.94;exitDx=0;exitDy=0;exitPerimeter=0;" edge="1" parent="1" source="a6851HNYbTkYE2Kyq5rs-13" target="a6851HNYbTkYE2Kyq5rs-9">
          <mxGeometry x="0.5161" width="160" relative="1" as="geometry">
            <mxPoint x="1423" y="640" as="sourcePoint" />
            <mxPoint x="1420" y="701" as="targetPoint" />
            <mxPoint as="offset" />
          </mxGeometry>
        </mxCell>
        <mxCell id="a6851HNYbTkYE2Kyq5rs-27" value="가게 문을 연다" style="ellipse;whiteSpace=wrap;html=1;" vertex="1" parent="1">
          <mxGeometry x="950" y="630" width="100" height="50" as="geometry" />
        </mxCell>
        <mxCell id="a6851HNYbTkYE2Kyq5rs-28" value="" style="endArrow=classic;html=1;rounded=0;entryX=0.5;entryY=0;entryDx=0;entryDy=0;exitX=0.5;exitY=1;exitDx=0;exitDy=0;" edge="1" parent="1" source="a6851HNYbTkYE2Kyq5rs-11" target="a6851HNYbTkYE2Kyq5rs-27">
          <mxGeometry width="50" height="50" relative="1" as="geometry">
            <mxPoint x="950" y="600" as="sourcePoint" />
            <mxPoint x="992" y="578" as="targetPoint" />
          </mxGeometry>
        </mxCell>
      </root>
    </mxGraphModel>
  </diagram>
</mxfile>
